<svg width="38" height="58" viewBox="0 0 38 58" fill="none" xmlns="http://www.w3.org/2000/svg">
<g clip-path="url(#clip0_125_561)">
<path d="M2.70123 57.9363C3.89936 57.9363 4.66178 57.2783 6.77485 55.2623L18.3204 44.0358C18.4511 43.9085 18.6689 43.9085 18.7996 44.0358L30.3452 55.2623C32.4583 57.2572 33.1989 57.9363 34.4189 57.9363C36.118 57.9363 37.12 56.8115 37.12 54.9015V7.51261C37.12 2.54666 34.5277 0 29.4739 0H7.6462C2.59231 0 0 2.54666 0 7.51261V54.9015C0 56.8115 1.00207 57.9363 2.70123 57.9363ZM4.66178 51.7394C4.2479 52.1425 3.79043 52.0365 3.79043 51.4634V7.57628C3.79043 5.00841 5.16282 3.69264 7.82048 3.69264H29.2997C31.9573 3.69264 33.3296 5.00841 33.3296 7.57628V51.4634C33.3296 52.0365 32.894 52.1425 32.4583 51.7394L19.9106 39.6641C19.1046 38.9001 18.0154 38.9001 17.2094 39.6641L4.66178 51.7394Z" fill="white"/>
</g>
<defs>
<clipPath id="clip0_125_561">
<rect width="37.12" height="58" fill="white"/>
</clipPath>
</defs>
</svg>
