<svg width="192" height="136" viewBox="0 0 192 136" fill="none" xmlns="http://www.w3.org/2000/svg">
<path d="M191.279 51.1733L181.287 88.4661L0 90.6818L12.6978 43.2929" fill="#C4007A"/>
<path d="M58.0369 51.804C58.0369 53.9091 57.5384 55.6911 56.5412 57.1499C55.5625 58.5902 54.0945 59.6889 52.1371 60.446C50.1797 61.1847 47.7422 61.554 44.8246 61.554C42.6641 61.554 40.8082 61.4155 39.2571 61.1385C37.7244 60.8615 36.1733 60.3999 34.6037 59.7536V52.7734C36.2841 53.5305 38.0845 54.1584 40.005 54.657C41.9439 55.1371 43.6428 55.3771 45.1016 55.3771C46.745 55.3771 47.9176 55.1371 48.6193 54.657C49.3395 54.1584 49.6996 53.5121 49.6996 52.718C49.6996 52.201 49.5518 51.7393 49.2564 51.3331C48.9794 50.9084 48.37 50.4375 47.4283 49.9205C46.4865 49.3849 45.0092 48.6925 42.9964 47.843C41.0575 47.0305 39.4602 46.2088 38.2045 45.3778C36.9673 44.5469 36.044 43.5682 35.4347 42.4418C34.8437 41.2969 34.5483 39.8473 34.5483 38.093C34.5483 35.2308 35.6562 33.0795 37.8722 31.6392C40.1065 30.1804 43.0888 29.451 46.8189 29.451C48.7393 29.451 50.5675 29.6449 52.3033 30.0327C54.0575 30.4205 55.858 31.0391 57.7045 31.8885L55.1562 37.9822C53.6236 37.3175 52.174 36.7727 50.8075 36.348C49.4595 35.9233 48.0838 35.7109 46.6804 35.7109C45.4432 35.7109 44.5107 35.8771 43.8828 36.2095C43.255 36.5419 42.9411 37.0497 42.9411 37.733C42.9411 38.2315 43.098 38.6747 43.4119 39.0625C43.7443 39.4503 44.3722 39.8842 45.2955 40.3643C46.2372 40.826 47.6129 41.4261 49.4226 42.1648C51.1768 42.8849 52.7003 43.642 53.9929 44.4361C55.2855 45.2116 56.2827 46.1811 56.9844 47.3445C57.6861 48.4893 58.0369 49.9759 58.0369 51.804ZM81.858 29.451C85.348 29.451 88.1641 30.8082 90.3061 33.5227C92.4666 36.2372 93.5469 40.2166 93.5469 45.4609C93.5469 48.9695 93.0391 51.924 92.0234 54.3246C91.0078 56.7067 89.6044 58.5071 87.8132 59.7259C86.022 60.9446 83.9631 61.554 81.6364 61.554C80.1406 61.554 78.8572 61.3693 77.7862 61C76.7152 60.6122 75.8011 60.1229 75.044 59.532C74.2869 58.9226 73.6314 58.2763 73.0774 57.593H72.6342C72.782 58.3317 72.8928 59.0888 72.9666 59.8643C73.0405 60.6399 73.0774 61.397 73.0774 62.1357V74.6278H64.6293V30.0327H71.4986L72.6896 34.049H73.0774C73.6314 33.218 74.3054 32.4517 75.0994 31.75C75.8935 31.0483 76.8445 30.4943 77.9524 30.0881C79.0788 29.6634 80.3807 29.451 81.858 29.451ZM79.1435 36.2095C77.6662 36.2095 76.4936 36.5142 75.6257 37.1236C74.7578 37.733 74.1207 38.647 73.7145 39.8658C73.3267 41.0845 73.1143 42.6264 73.0774 44.4915V45.4055C73.0774 47.3999 73.2621 49.0895 73.6314 50.4744C74.0192 51.8594 74.6562 52.9119 75.5426 53.6321C76.4474 54.3523 77.6847 54.7124 79.2543 54.7124C80.5469 54.7124 81.6087 54.3523 82.4396 53.6321C83.2706 52.9119 83.8892 51.8594 84.2955 50.4744C84.7202 49.071 84.9325 47.3629 84.9325 45.3501C84.9325 42.3217 84.4616 40.0412 83.5199 38.5085C82.5781 36.9759 81.1193 36.2095 79.1435 36.2095ZM128.669 45.4609C128.669 48.0462 128.318 50.3359 127.616 52.3303C126.933 54.3246 125.927 56.0142 124.597 57.3991C123.286 58.7656 121.698 59.7997 119.833 60.5014C117.987 61.2031 115.9 61.554 113.573 61.554C111.394 61.554 109.391 61.2031 107.562 60.5014C105.753 59.7997 104.174 58.7656 102.826 57.3991C101.496 56.0142 100.462 54.3246 99.7237 52.3303C99.0035 50.3359 98.6435 48.0462 98.6435 45.4609C98.6435 42.0263 99.2528 39.1179 100.472 36.7358C101.69 34.3537 103.426 32.544 105.679 31.3068C107.932 30.0696 110.619 29.451 113.739 29.451C116.638 29.451 119.205 30.0696 121.44 31.3068C123.692 32.544 125.456 34.3537 126.73 36.7358C128.023 39.1179 128.669 42.0263 128.669 45.4609ZM107.258 45.4609C107.258 47.4922 107.479 49.2003 107.923 50.5852C108.366 51.9702 109.058 53.0135 110 53.7152C110.942 54.4169 112.17 54.7678 113.684 54.7678C115.18 54.7678 116.389 54.4169 117.312 53.7152C118.254 53.0135 118.937 51.9702 119.362 50.5852C119.805 49.2003 120.027 47.4922 120.027 45.4609C120.027 43.4112 119.805 41.7124 119.362 40.3643C118.937 38.9979 118.254 37.973 117.312 37.2898C116.371 36.6065 115.143 36.2649 113.629 36.2649C111.394 36.2649 109.769 37.0313 108.754 38.5639C107.756 40.0966 107.258 42.3956 107.258 45.4609ZM152.933 29.451C153.358 29.451 153.847 29.4787 154.401 29.5341C154.974 29.571 155.435 29.6264 155.786 29.7003L155.149 37.6222C154.872 37.5298 154.475 37.4652 153.958 37.4283C153.46 37.3729 153.026 37.3452 152.656 37.3452C151.567 37.3452 150.505 37.4837 149.471 37.7607C148.455 38.0376 147.541 38.4901 146.729 39.1179C145.916 39.7273 145.27 40.5398 144.79 41.5554C144.328 42.5526 144.097 43.7805 144.097 45.2393V61H135.649V30.0327H142.048L143.294 35.2401H143.71C144.319 34.1875 145.076 33.2273 145.981 32.3594C146.904 31.473 147.947 30.7713 149.111 30.2543C150.293 29.7188 151.567 29.451 152.933 29.451ZM174.455 54.8232C175.379 54.8232 176.274 54.7308 177.142 54.5462C178.028 54.3615 178.906 54.1307 179.773 53.8537V60.1413C178.869 60.5476 177.742 60.88 176.394 61.1385C175.065 61.4155 173.606 61.554 172.018 61.554C170.171 61.554 168.509 61.2585 167.032 60.6676C165.573 60.0582 164.419 59.0149 163.57 57.5376C162.739 56.0419 162.323 53.9645 162.323 51.3054V36.3757H158.279V32.8026L162.933 29.9773L165.37 23.4403H170.771V30.0327H179.441V36.3757H170.771V51.3054C170.771 52.4872 171.104 53.3736 171.768 53.9645C172.452 54.5369 173.347 54.8232 174.455 54.8232Z" fill="black"/>
<path d="M182 76H134V63H182V76Z" fill="#C4007A"/>
</svg>
