<svg width="202" height="137" viewBox="0 0 202 137" fill="none" xmlns="http://www.w3.org/2000/svg">
<path d="M196.279 52.1732L186.287 89.466L5 91.6816L17.6978 44.2927" fill="#C4007A"/>
<path d="M26.0369 51.804C26.0369 53.9091 25.5384 55.6911 24.5412 57.1499C23.5625 58.5902 22.0945 59.6889 20.1371 60.446C18.1797 61.1847 15.7422 61.554 12.8246 61.554C10.6641 61.554 8.80824 61.4155 7.2571 61.1385C5.72443 60.8615 4.1733 60.3999 2.60369 59.7536V52.7734C4.28409 53.5305 6.08452 54.1584 8.00497 54.657C9.94389 55.1371 11.6428 55.3771 13.1016 55.3771C14.745 55.3771 15.9176 55.1371 16.6193 54.657C17.3395 54.1584 17.6996 53.5121 17.6996 52.718C17.6996 52.201 17.5518 51.7393 17.2564 51.3331C16.9794 50.9084 16.37 50.4375 15.4283 49.9205C14.4865 49.3849 13.0092 48.6925 10.9964 47.843C9.05753 47.0305 7.46023 46.2088 6.20455 45.3778C4.96733 44.5469 4.04403 43.5682 3.43466 42.4418C2.84375 41.2969 2.5483 39.8473 2.5483 38.093C2.5483 35.2308 3.65625 33.0795 5.87216 31.6392C8.10653 30.1804 11.0888 29.451 14.8189 29.451C16.7393 29.451 18.5675 29.6449 20.3033 30.0327C22.0575 30.4205 23.858 31.0391 25.7045 31.8885L23.1562 37.9822C21.6236 37.3175 20.174 36.7727 18.8075 36.348C17.4595 35.9233 16.0838 35.7109 14.6804 35.7109C13.4432 35.7109 12.5107 35.8771 11.8828 36.2095C11.255 36.5419 10.9411 37.0497 10.9411 37.733C10.9411 38.2315 11.098 38.6747 11.4119 39.0625C11.7443 39.4503 12.3722 39.8842 13.2955 40.3643C14.2372 40.826 15.6129 41.4261 17.4226 42.1648C19.1768 42.8849 20.7003 43.642 21.9929 44.4361C23.2855 45.2116 24.2827 46.1811 24.9844 47.3445C25.6861 48.4893 26.0369 49.9759 26.0369 51.804ZM61.0483 30.0327V61H54.5668L53.4311 57.0391H52.9879C52.3232 58.0916 51.4922 58.9503 50.495 59.6151C49.4979 60.2798 48.3991 60.7692 47.1989 61.0831C45.9986 61.397 44.7521 61.554 43.4595 61.554C41.2436 61.554 39.3139 61.1662 37.6705 60.3906C36.027 59.5966 34.7436 58.3686 33.8203 56.7067C32.9155 55.0447 32.4631 52.8842 32.4631 50.2251V30.0327H40.9112V48.12C40.9112 50.3359 41.3082 52.0071 42.1023 53.1335C42.8963 54.2599 44.1612 54.8232 45.897 54.8232C47.6143 54.8232 48.9624 54.4354 49.9411 53.6598C50.9197 52.8658 51.603 51.7116 51.9908 50.1974C52.397 48.6648 52.6001 46.7997 52.6001 44.6023V30.0327H61.0483ZM78.3601 30.0327V61H69.9119V30.0327H78.3601ZM74.1499 17.9006C75.4055 17.9006 76.4858 18.196 77.3906 18.7869C78.2955 19.3594 78.7479 20.4396 78.7479 22.0277C78.7479 23.5973 78.2955 24.6868 77.3906 25.2962C76.4858 25.8871 75.4055 26.1825 74.1499 26.1825C72.8757 26.1825 71.7862 25.8871 70.8814 25.2962C69.995 24.6868 69.5518 23.5973 69.5518 22.0277C69.5518 20.4396 69.995 19.3594 70.8814 18.7869C71.7862 18.196 72.8757 17.9006 74.1499 17.9006ZM108.857 51.804C108.857 53.9091 108.358 55.6911 107.361 57.1499C106.382 58.5902 104.914 59.6889 102.957 60.446C100.999 61.1847 98.5618 61.554 95.6442 61.554C93.4837 61.554 91.6278 61.4155 90.0767 61.1385C88.544 60.8615 86.9929 60.3999 85.4233 59.7536V52.7734C87.1037 53.5305 88.9041 54.1584 90.8246 54.657C92.7635 55.1371 94.4624 55.3771 95.9212 55.3771C97.5646 55.3771 98.7372 55.1371 99.4389 54.657C100.159 54.1584 100.519 53.5121 100.519 52.718C100.519 52.201 100.371 51.7393 100.076 51.3331C99.799 50.9084 99.1896 50.4375 98.2479 49.9205C97.3061 49.3849 95.8288 48.6925 93.8161 47.843C91.8771 47.0305 90.2798 46.2088 89.0241 45.3778C87.7869 44.5469 86.8636 43.5682 86.2543 42.4418C85.6634 41.2969 85.3679 39.8473 85.3679 38.093C85.3679 35.2308 86.4759 33.0795 88.6918 31.6392C90.9261 30.1804 93.9084 29.451 97.6385 29.451C99.5589 29.451 101.387 29.6449 103.123 30.0327C104.877 30.4205 106.678 31.0391 108.524 31.8885L105.976 37.9822C104.443 37.3175 102.994 36.7727 101.627 36.348C100.279 35.9233 98.9034 35.7109 97.5 35.7109C96.2628 35.7109 95.3303 35.8771 94.7024 36.2095C94.0746 36.5419 93.7607 37.0497 93.7607 37.733C93.7607 38.2315 93.9176 38.6747 94.2315 39.0625C94.5639 39.4503 95.1918 39.8842 96.1151 40.3643C97.0568 40.826 98.4325 41.4261 100.242 42.1648C101.996 42.8849 103.52 43.642 104.813 44.4361C106.105 45.2116 107.102 46.1811 107.804 47.3445C108.506 48.4893 108.857 49.9759 108.857 51.804ZM137.054 51.804C137.054 53.9091 136.555 55.6911 135.558 57.1499C134.58 58.5902 133.112 59.6889 131.154 60.446C129.197 61.1847 126.759 61.554 123.842 61.554C121.681 61.554 119.825 61.4155 118.274 61.1385C116.741 60.8615 115.19 60.3999 113.621 59.7536V52.7734C115.301 53.5305 117.102 54.1584 119.022 54.657C120.961 55.1371 122.66 55.3771 124.119 55.3771C125.762 55.3771 126.935 55.1371 127.636 54.657C128.357 54.1584 128.717 53.5121 128.717 52.718C128.717 52.201 128.569 51.7393 128.273 51.3331C127.996 50.9084 127.387 50.4375 126.445 49.9205C125.504 49.3849 124.026 48.6925 122.013 47.843C120.075 47.0305 118.477 46.2088 117.222 45.3778C115.984 44.5469 115.061 43.5682 114.452 42.4418C113.861 41.2969 113.565 39.8473 113.565 38.093C113.565 35.2308 114.673 33.0795 116.889 31.6392C119.124 30.1804 122.106 29.451 125.836 29.451C127.756 29.451 129.585 29.6449 131.32 30.0327C133.075 30.4205 134.875 31.0391 136.722 31.8885L134.173 37.9822C132.641 37.3175 131.191 36.7727 129.825 36.348C128.477 35.9233 127.101 35.7109 125.697 35.7109C124.46 35.7109 123.528 35.8771 122.9 36.2095C122.272 36.5419 121.958 37.0497 121.958 37.733C121.958 38.2315 122.115 38.6747 122.429 39.0625C122.761 39.4503 123.389 39.8842 124.312 40.3643C125.254 40.826 126.63 41.4261 128.44 42.1648C130.194 42.8849 131.717 43.642 133.01 44.4361C134.303 45.2116 135.3 46.1811 136.001 47.3445C136.703 48.4893 137.054 49.9759 137.054 51.804ZM156.415 29.451C159.278 29.451 161.743 30.005 163.811 31.1129C165.879 32.2024 167.477 33.7905 168.603 35.8771C169.729 37.9638 170.293 40.5121 170.293 43.522V47.6214H150.322C150.414 50.0036 151.125 51.8778 152.455 53.2443C153.803 54.5923 155.668 55.2663 158.05 55.2663C160.026 55.2663 161.835 55.0632 163.479 54.657C165.122 54.2507 166.812 53.6413 168.548 52.8288V59.3658C167.015 60.1229 165.408 60.6768 163.728 61.0277C162.066 61.3786 160.044 61.554 157.662 61.554C154.56 61.554 151.808 60.9815 149.408 59.8366C147.026 58.6918 145.151 56.9467 143.785 54.6016C142.437 52.2564 141.763 49.3018 141.763 45.7379C141.763 42.1186 142.372 39.1087 143.591 36.7081C144.828 34.2891 146.545 32.4794 148.743 31.2791C150.94 30.0604 153.498 29.451 156.415 29.451ZM156.471 35.4616C154.827 35.4616 153.461 35.9879 152.371 37.0405C151.3 38.093 150.682 39.7457 150.516 41.9986H162.371C162.352 40.7429 162.121 39.6257 161.678 38.647C161.254 37.6683 160.607 36.8928 159.739 36.3203C158.89 35.7479 157.8 35.4616 156.471 35.4616Z" fill="black"/>
</svg>
