<svg width="202" height="142" viewBox="0 0 202 142" fill="none" xmlns="http://www.w3.org/2000/svg">
<g style="mix-blend-mode:hard-light" opacity="0.75">
<path d="M200.279 57.1733L190.287 94.4661L9 96.6818L21.6978 49.2929" fill="black"/>
</g>
<path d="M26.0369 51.804C26.0369 53.9091 25.5384 55.6911 24.5412 57.1499C23.5625 58.5902 22.0945 59.6889 20.1371 60.446C18.1797 61.1847 15.7422 61.554 12.8246 61.554C10.6641 61.554 8.80824 61.4155 7.2571 61.1385C5.72443 60.8615 4.1733 60.3999 2.60369 59.7536V52.7734C4.28409 53.5305 6.08452 54.1584 8.00497 54.657C9.94389 55.1371 11.6428 55.3771 13.1016 55.3771C14.745 55.3771 15.9176 55.1371 16.6193 54.657C17.3395 54.1584 17.6996 53.5121 17.6996 52.718C17.6996 52.201 17.5518 51.7393 17.2564 51.3331C16.9794 50.9084 16.37 50.4375 15.4283 49.9205C14.4865 49.3849 13.0092 48.6925 10.9964 47.843C9.05753 47.0305 7.46023 46.2088 6.20455 45.3778C4.96733 44.5469 4.04403 43.5682 3.43466 42.4418C2.84375 41.2969 2.5483 39.8473 2.5483 38.093C2.5483 35.2308 3.65625 33.0795 5.87216 31.6392C8.10653 30.1804 11.0888 29.451 14.8189 29.451C16.7393 29.451 18.5675 29.6449 20.3033 30.0327C22.0575 30.4205 23.858 31.0391 25.7045 31.8885L23.1562 37.9822C21.6236 37.3175 20.174 36.7727 18.8075 36.348C17.4595 35.9233 16.0838 35.7109 14.6804 35.7109C13.4432 35.7109 12.5107 35.8771 11.8828 36.2095C11.255 36.5419 10.9411 37.0497 10.9411 37.733C10.9411 38.2315 11.098 38.6747 11.4119 39.0625C11.7443 39.4503 12.3722 39.8842 13.2955 40.3643C14.2372 40.826 15.6129 41.4261 17.4226 42.1648C19.1768 42.8849 20.7003 43.642 21.9929 44.4361C23.2855 45.2116 24.2827 46.1811 24.9844 47.3445C25.6861 48.4893 26.0369 49.9759 26.0369 51.804ZM60.7713 45.4609C60.7713 48.0462 60.4205 50.3359 59.7187 52.3303C59.0355 54.3246 58.0291 56.0142 56.6996 57.3991C55.3885 58.7656 53.8004 59.7997 51.9354 60.5014C50.0888 61.2031 48.0021 61.554 45.6754 61.554C43.4964 61.554 41.4929 61.2031 39.6648 60.5014C37.8551 59.7997 36.2763 58.7656 34.9283 57.3991C33.5987 56.0142 32.5646 54.3246 31.826 52.3303C31.1058 50.3359 30.7457 48.0462 30.7457 45.4609C30.7457 42.0263 31.3551 39.1179 32.5739 36.7358C33.7926 34.3537 35.5284 32.544 37.7812 31.3068C40.0341 30.0696 42.7209 29.451 45.8416 29.451C48.7408 29.451 51.3075 30.0696 53.5419 31.3068C55.7947 32.544 57.5582 34.3537 58.8324 36.7358C60.125 39.1179 60.7713 42.0263 60.7713 45.4609ZM39.3601 45.4609C39.3601 47.4922 39.5817 49.2003 40.0249 50.5852C40.468 51.9702 41.1605 53.0135 42.1023 53.7152C43.044 54.4169 44.272 54.7678 45.7862 54.7678C47.282 54.7678 48.4915 54.4169 49.4148 53.7152C50.3565 53.0135 51.0398 51.9702 51.4645 50.5852C51.9077 49.2003 52.1293 47.4922 52.1293 45.4609C52.1293 43.4112 51.9077 41.7124 51.4645 40.3643C51.0398 38.9979 50.3565 37.973 49.4148 37.2898C48.473 36.6065 47.245 36.2649 45.7308 36.2649C43.4964 36.2649 41.8714 37.0313 40.8558 38.5639C39.8587 40.0966 39.3601 42.3956 39.3601 45.4609ZM80.3267 61.554C77.2614 61.554 74.6484 61 72.4879 59.892C70.3274 58.7656 68.6839 57.0298 67.5575 54.6847C66.4311 52.3395 65.8679 49.3388 65.8679 45.6825C65.8679 41.897 66.505 38.8132 67.7791 36.4311C69.0717 34.0305 70.8537 32.267 73.125 31.1406C75.4148 30.0142 78.0646 29.451 81.0746 29.451C83.2166 29.451 85.0632 29.6634 86.6143 30.0881C88.1839 30.4943 89.5504 30.9837 90.7138 31.5561L88.2209 38.093C86.8913 37.5575 85.6541 37.1236 84.5092 36.7912C83.3643 36.4403 82.2195 36.2649 81.0746 36.2649C79.5973 36.2649 78.3693 36.6158 77.3906 37.3175C76.4119 38.0007 75.6825 39.0348 75.2024 40.4197C74.7223 41.8047 74.4822 43.5405 74.4822 45.6271C74.4822 47.6768 74.7408 49.3757 75.2578 50.7237C75.7749 52.0717 76.5227 53.0781 77.5014 53.7429C78.4801 54.3892 79.6712 54.7124 81.0746 54.7124C82.8288 54.7124 84.3892 54.4815 85.7557 54.0199C87.1222 53.5398 88.4517 52.875 89.7443 52.0256V59.255C88.4517 60.0675 87.0945 60.6491 85.6726 61C84.2692 61.3693 82.4872 61.554 80.3267 61.554ZM105.394 30.0327V61H96.946V30.0327H105.394ZM101.184 17.9006C102.44 17.9006 103.52 18.196 104.425 18.7869C105.33 19.3594 105.782 20.4396 105.782 22.0277C105.782 23.5973 105.33 24.6868 104.425 25.2962C103.52 25.8871 102.44 26.1825 101.184 26.1825C99.9098 26.1825 98.8203 25.8871 97.9155 25.2962C97.0291 24.6868 96.5859 23.5973 96.5859 22.0277C96.5859 20.4396 97.0291 19.3594 97.9155 18.7869C98.8203 18.196 99.9098 17.9006 101.184 17.9006ZM127.055 29.451C129.917 29.451 132.382 30.005 134.45 31.1129C136.518 32.2024 138.116 33.7905 139.242 35.8771C140.369 37.9638 140.932 40.5121 140.932 43.522V47.6214H120.961C121.053 50.0036 121.764 51.8778 123.094 53.2443C124.442 54.5923 126.307 55.2663 128.689 55.2663C130.665 55.2663 132.474 55.0632 134.118 54.657C135.761 54.2507 137.451 53.6413 139.187 52.8288V59.3658C137.654 60.1229 136.048 60.6768 134.367 61.0277C132.705 61.3786 130.683 61.554 128.301 61.554C125.199 61.554 122.447 60.9815 120.047 59.8366C117.665 58.6918 115.79 56.9467 114.424 54.6016C113.076 52.2564 112.402 49.3018 112.402 45.7379C112.402 42.1186 113.011 39.1087 114.23 36.7081C115.467 34.2891 117.185 32.4794 119.382 31.2791C121.58 30.0604 124.137 29.451 127.055 29.451ZM127.11 35.4616C125.467 35.4616 124.1 35.9879 123.011 37.0405C121.94 38.093 121.321 39.7457 121.155 41.9986H133.01C132.991 40.7429 132.761 39.6257 132.317 38.647C131.893 37.6683 131.246 36.8928 130.379 36.3203C129.529 35.7479 128.44 35.4616 127.11 35.4616ZM137.525 17.5405V18.1222C136.989 18.6392 136.288 19.2763 135.42 20.0334C134.552 20.7905 133.619 21.5845 132.622 22.4155C131.625 23.228 130.646 24.0128 129.686 24.7699C128.726 25.5085 127.886 26.1271 127.165 26.6257H121.543V25.8778C122.152 25.1761 122.854 24.3452 123.648 23.3849C124.46 22.4063 125.263 21.3999 126.058 20.3658C126.852 19.3317 127.516 18.3899 128.052 17.5405H137.525ZM160.847 54.8232C161.771 54.8232 162.666 54.7308 163.534 54.5462C164.42 54.3615 165.298 54.1307 166.165 53.8537V60.1413C165.261 60.5476 164.134 60.88 162.786 61.1385C161.457 61.4155 159.998 61.554 158.41 61.554C156.563 61.554 154.901 61.2585 153.424 60.6676C151.965 60.0582 150.811 59.0149 149.962 57.5376C149.131 56.0419 148.715 53.9645 148.715 51.3054V36.3757H144.671V32.8026L149.325 29.9773L151.762 23.4403H157.163V30.0327H165.833V36.3757H157.163V51.3054C157.163 52.4872 157.496 53.3736 158.161 53.9645C158.844 54.5369 159.739 54.8232 160.847 54.8232ZM185.222 29.451C188.085 29.451 190.55 30.005 192.618 31.1129C194.686 32.2024 196.283 33.7905 197.41 35.8771C198.536 37.9638 199.099 40.5121 199.099 43.522V47.6214H179.129C179.221 50.0036 179.932 51.8778 181.261 53.2443C182.609 54.5923 184.474 55.2663 186.857 55.2663C188.832 55.2663 190.642 55.0632 192.286 54.657C193.929 54.2507 195.619 53.6413 197.354 52.8288V59.3658C195.822 60.1229 194.215 60.6768 192.535 61.0277C190.873 61.3786 188.851 61.554 186.469 61.554C183.366 61.554 180.615 60.9815 178.214 59.8366C175.832 58.6918 173.958 56.9467 172.592 54.6016C171.244 52.2564 170.57 49.3018 170.57 45.7379C170.57 42.1186 171.179 39.1087 172.398 36.7081C173.635 34.2891 175.352 32.4794 177.55 31.2791C179.747 30.0604 182.305 29.451 185.222 29.451ZM185.278 35.4616C183.634 35.4616 182.268 35.9879 181.178 37.0405C180.107 38.093 179.489 39.7457 179.322 41.9986H191.178C191.159 40.7429 190.928 39.6257 190.485 38.647C190.06 37.6683 189.414 36.8928 188.546 36.3203C187.697 35.7479 186.607 35.4616 185.278 35.4616ZM195.692 17.5405V18.1222C195.157 18.6392 194.455 19.2763 193.587 20.0334C192.719 20.7905 191.787 21.5845 190.79 22.4155C189.793 23.228 188.814 24.0128 187.854 24.7699C186.893 25.5085 186.053 26.1271 185.333 26.6257H179.71V25.8778C180.32 25.1761 181.021 24.3452 181.815 23.3849C182.628 22.4063 183.431 21.3999 184.225 20.3658C185.019 19.3317 185.684 18.3899 186.219 17.5405H195.692Z" fill="white"/>
<path d="M199 77H151V64H199V77Z" fill="#C4007A"/>
</svg>
