<svg width="193" height="136" viewBox="0 0 193 136" fill="none" xmlns="http://www.w3.org/2000/svg">
<g style="mix-blend-mode:hard-light" opacity="0.75">
<path d="M192.058 51.1733L182.066 88.4661L0.778931 90.6818L13.4768 43.2929" fill="black"/>
</g>
<path d="M58.8159 51.804C58.8159 53.9091 58.3173 55.6911 57.3201 57.1499C56.3414 58.5902 54.8734 59.6889 52.916 60.446C50.9586 61.1847 48.5211 61.554 45.6035 61.554C43.443 61.554 41.5872 61.4155 40.036 61.1385C38.5034 60.8615 36.9522 60.3999 35.3826 59.7536V52.7734C37.063 53.5305 38.8634 54.1584 40.7839 54.657C42.7228 55.1371 44.4217 55.3771 45.8805 55.3771C47.524 55.3771 48.6965 55.1371 49.3982 54.657C50.1184 54.1584 50.4785 53.5121 50.4785 52.718C50.4785 52.201 50.3308 51.7393 50.0353 51.3331C49.7583 50.9084 49.149 50.4375 48.2072 49.9205C47.2654 49.3849 45.7882 48.6925 43.7754 47.843C41.8365 47.0305 40.2392 46.2088 38.9835 45.3778C37.7463 44.5469 36.823 43.5682 36.2136 42.4418C35.6227 41.2969 35.3272 39.8473 35.3272 38.093C35.3272 35.2308 36.4352 33.0795 38.6511 31.6392C40.8855 30.1804 43.8677 29.451 47.5978 29.451C49.5183 29.451 51.3464 29.6449 53.0822 30.0327C54.8365 30.4205 56.6369 31.0391 58.4835 31.8885L55.9352 37.9822C54.4025 37.3175 52.9529 36.7727 51.5865 36.348C50.2384 35.9233 48.8627 35.7109 47.4593 35.7109C46.2221 35.7109 45.2896 35.8771 44.6617 36.2095C44.0339 36.5419 43.72 37.0497 43.72 37.733C43.72 38.2315 43.8769 38.6747 44.1909 39.0625C44.5232 39.4503 45.1511 39.8842 46.0744 40.3643C47.0161 40.826 48.3919 41.4261 50.2015 42.1648C51.9558 42.8849 53.4792 43.642 54.7718 44.4361C56.0644 45.2116 57.0616 46.1811 57.7633 47.3445C58.465 48.4893 58.8159 49.9759 58.8159 51.804ZM82.6369 29.451C86.1269 29.451 88.943 30.8082 91.085 33.5227C93.2455 36.2372 94.3258 40.2166 94.3258 45.4609C94.3258 48.9695 93.818 51.924 92.8024 54.3246C91.7867 56.7067 90.3833 58.5071 88.5921 59.7259C86.8009 60.9446 84.742 61.554 82.4153 61.554C80.9196 61.554 79.6362 61.3693 78.5652 61C77.4941 60.6122 76.5801 60.1229 75.823 59.532C75.0659 58.9226 74.4103 58.2763 73.8563 57.593H73.4132C73.5609 58.3317 73.6717 59.0888 73.7455 59.8643C73.8194 60.6399 73.8563 61.397 73.8563 62.1357V74.6278H65.4082V30.0327H72.2775L73.4686 34.049H73.8563C74.4103 33.218 75.0843 32.4517 75.8784 31.75C76.6724 31.0483 77.6234 30.4943 78.7313 30.0881C79.8578 29.6634 81.1596 29.451 82.6369 29.451ZM79.9224 36.2095C78.4451 36.2095 77.2725 36.5142 76.4046 37.1236C75.5367 37.733 74.8997 38.647 74.4934 39.8658C74.1056 41.0845 73.8933 42.6264 73.8563 44.4915V45.4055C73.8563 47.3999 74.041 49.0895 74.4103 50.4744C74.7981 51.8594 75.4352 52.9119 76.3215 53.6321C77.2264 54.3523 78.4636 54.7124 80.0332 54.7124C81.3258 54.7124 82.3876 54.3523 83.2186 53.6321C84.0495 52.9119 84.6681 51.8594 85.0744 50.4744C85.4991 49.071 85.7115 47.3629 85.7115 45.3501C85.7115 42.3217 85.2406 40.0412 84.2988 38.5085C83.3571 36.9759 81.8982 36.2095 79.9224 36.2095ZM129.448 45.4609C129.448 48.0462 129.097 50.3359 128.395 52.3303C127.712 54.3246 126.706 56.0142 125.376 57.3991C124.065 58.7656 122.477 59.7997 120.612 60.5014C118.765 61.2031 116.679 61.554 114.352 61.554C112.173 61.554 110.17 61.2031 108.341 60.5014C106.532 59.7997 104.953 58.7656 103.605 57.3991C102.275 56.0142 101.241 54.3246 100.503 52.3303C99.7825 50.3359 99.4224 48.0462 99.4224 45.4609C99.4224 42.0263 100.032 39.1179 101.251 36.7358C102.469 34.3537 104.205 32.544 106.458 31.3068C108.711 30.0696 111.398 29.451 114.518 29.451C117.417 29.451 119.984 30.0696 122.219 31.3068C124.471 32.544 126.235 34.3537 127.509 36.7358C128.802 39.1179 129.448 42.0263 129.448 45.4609ZM108.037 45.4609C108.037 47.4922 108.258 49.2003 108.702 50.5852C109.145 51.9702 109.837 53.0135 110.779 53.7152C111.721 54.4169 112.949 54.7678 114.463 54.7678C115.959 54.7678 117.168 54.4169 118.091 53.7152C119.033 53.0135 119.716 51.9702 120.141 50.5852C120.584 49.2003 120.806 47.4922 120.806 45.4609C120.806 43.4112 120.584 41.7124 120.141 40.3643C119.716 38.9979 119.033 37.973 118.091 37.2898C117.15 36.6065 115.922 36.2649 114.407 36.2649C112.173 36.2649 110.548 37.0313 109.532 38.5639C108.535 40.0966 108.037 42.3956 108.037 45.4609ZM153.712 29.451C154.137 29.451 154.626 29.4787 155.18 29.5341C155.753 29.571 156.214 29.6264 156.565 29.7003L155.928 37.6222C155.651 37.5298 155.254 37.4652 154.737 37.4283C154.238 37.3729 153.804 37.3452 153.435 37.3452C152.346 37.3452 151.284 37.4837 150.25 37.7607C149.234 38.0376 148.32 38.4901 147.508 39.1179C146.695 39.7273 146.049 40.5398 145.569 41.5554C145.107 42.5526 144.876 43.7805 144.876 45.2393V61H136.428V30.0327H142.827L144.073 35.2401H144.488C145.098 34.1875 145.855 33.2273 146.76 32.3594C147.683 31.473 148.726 30.7713 149.89 30.2543C151.072 29.7188 152.346 29.451 153.712 29.451ZM175.234 54.8232C176.157 54.8232 177.053 54.7308 177.921 54.5462C178.807 54.3615 179.684 54.1307 180.552 53.8537V60.1413C179.648 60.5476 178.521 60.88 177.173 61.1385C175.844 61.4155 174.385 61.554 172.797 61.554C170.95 61.554 169.288 61.2585 167.811 60.6676C166.352 60.0582 165.198 59.0149 164.349 57.5376C163.518 56.0419 163.102 53.9645 163.102 51.3054V36.3757H159.058V32.8026L163.711 29.9773L166.149 23.4403H171.55V30.0327H180.22V36.3757H171.55V51.3054C171.55 52.4872 171.883 53.3736 172.547 53.9645C173.231 54.5369 174.126 54.8232 175.234 54.8232Z" fill="white"/>
<path d="M182.779 76H134.779V63H182.779V76Z" fill="#C4007A"/>
</svg>
