<svg width="192" height="142" viewBox="0 0 192 142" fill="none" xmlns="http://www.w3.org/2000/svg">
<g style="mix-blend-mode:hard-light" opacity="0.75">
<path d="M191.279 57.1733L181.287 94.4661L0 96.6818L12.6978 49.2929" fill="black"/>
</g>
<path d="M40.0369 51.804C40.0369 53.9091 39.5384 55.6911 38.5412 57.1499C37.5625 58.5902 36.0945 59.6889 34.1371 60.446C32.1797 61.1847 29.7422 61.554 26.8246 61.554C24.6641 61.554 22.8082 61.4155 21.2571 61.1385C19.7244 60.8615 18.1733 60.3999 16.6037 59.7536V52.7734C18.2841 53.5305 20.0845 54.1584 22.005 54.657C23.9439 55.1371 25.6428 55.3771 27.1016 55.3771C28.745 55.3771 29.9176 55.1371 30.6193 54.657C31.3395 54.1584 31.6996 53.5121 31.6996 52.718C31.6996 52.201 31.5518 51.7393 31.2564 51.3331C30.9794 50.9084 30.37 50.4375 29.4283 49.9205C28.4865 49.3849 27.0092 48.6925 24.9964 47.843C23.0575 47.0305 21.4602 46.2088 20.2045 45.3778C18.9673 44.5469 18.044 43.5682 17.4347 42.4418C16.8437 41.2969 16.5483 39.8473 16.5483 38.093C16.5483 35.2308 17.6562 33.0795 19.8722 31.6392C22.1065 30.1804 25.0888 29.451 28.8189 29.451C30.7393 29.451 32.5675 29.6449 34.3033 30.0327C36.0575 30.4205 37.858 31.0391 39.7045 31.8885L37.1562 37.9822C35.6236 37.3175 34.174 36.7727 32.8075 36.348C31.4595 35.9233 30.0838 35.7109 28.6804 35.7109C27.4432 35.7109 26.5107 35.8771 25.8828 36.2095C25.255 36.5419 24.9411 37.0497 24.9411 37.733C24.9411 38.2315 25.098 38.6747 25.4119 39.0625C25.7443 39.4503 26.3722 39.8842 27.2955 40.3643C28.2372 40.826 29.6129 41.4261 31.4226 42.1648C33.1768 42.8849 34.7003 43.642 35.9929 44.4361C37.2855 45.2116 38.2827 46.1811 38.9844 47.3445C39.6861 48.4893 40.0369 49.9759 40.0369 51.804ZM75.0483 30.0327V61H68.5668L67.4311 57.0391H66.9879C66.3232 58.0916 65.4922 58.9503 64.495 59.6151C63.4979 60.2798 62.3991 60.7692 61.1989 61.0831C59.9986 61.397 58.7521 61.554 57.4595 61.554C55.2436 61.554 53.3139 61.1662 51.6705 60.3906C50.027 59.5966 48.7436 58.3686 47.8203 56.7067C46.9155 55.0447 46.4631 52.8842 46.4631 50.2251V30.0327H54.9112V48.12C54.9112 50.3359 55.3082 52.0071 56.1023 53.1335C56.8963 54.2599 58.1612 54.8232 59.897 54.8232C61.6143 54.8232 62.9624 54.4354 63.9411 53.6598C64.9197 52.8658 65.603 51.7116 65.9908 50.1974C66.397 48.6648 66.6001 46.7997 66.6001 44.6023V30.0327H75.0483ZM92.3601 30.0327V61H83.9119V30.0327H92.3601ZM88.1499 17.9006C89.4055 17.9006 90.4858 18.196 91.3906 18.7869C92.2955 19.3594 92.7479 20.4396 92.7479 22.0277C92.7479 23.5973 92.2955 24.6868 91.3906 25.2962C90.4858 25.8871 89.4055 26.1825 88.1499 26.1825C86.8757 26.1825 85.7862 25.8871 84.8814 25.2962C83.995 24.6868 83.5518 23.5973 83.5518 22.0277C83.5518 20.4396 83.995 19.3594 84.8814 18.7869C85.7862 18.196 86.8757 17.9006 88.1499 17.9006ZM122.857 51.804C122.857 53.9091 122.358 55.6911 121.361 57.1499C120.382 58.5902 118.914 59.6889 116.957 60.446C114.999 61.1847 112.562 61.554 109.644 61.554C107.484 61.554 105.628 61.4155 104.077 61.1385C102.544 60.8615 100.993 60.3999 99.4233 59.7536V52.7734C101.104 53.5305 102.904 54.1584 104.825 54.657C106.763 55.1371 108.462 55.3771 109.921 55.3771C111.565 55.3771 112.737 55.1371 113.439 54.657C114.159 54.1584 114.519 53.5121 114.519 52.718C114.519 52.201 114.371 51.7393 114.076 51.3331C113.799 50.9084 113.19 50.4375 112.248 49.9205C111.306 49.3849 109.829 48.6925 107.816 47.843C105.877 47.0305 104.28 46.2088 103.024 45.3778C101.787 44.5469 100.864 43.5682 100.254 42.4418C99.6634 41.2969 99.3679 39.8473 99.3679 38.093C99.3679 35.2308 100.476 33.0795 102.692 31.6392C104.926 30.1804 107.908 29.451 111.638 29.451C113.559 29.451 115.387 29.6449 117.123 30.0327C118.877 30.4205 120.678 31.0391 122.524 31.8885L119.976 37.9822C118.443 37.3175 116.994 36.7727 115.627 36.348C114.279 35.9233 112.903 35.7109 111.5 35.7109C110.263 35.7109 109.33 35.8771 108.702 36.2095C108.075 36.5419 107.761 37.0497 107.761 37.733C107.761 38.2315 107.918 38.6747 108.232 39.0625C108.564 39.4503 109.192 39.8842 110.115 40.3643C111.057 40.826 112.433 41.4261 114.242 42.1648C115.996 42.8849 117.52 43.642 118.813 44.4361C120.105 45.2116 121.102 46.1811 121.804 47.3445C122.506 48.4893 122.857 49.9759 122.857 51.804ZM151.054 51.804C151.054 53.9091 150.555 55.6911 149.558 57.1499C148.58 58.5902 147.112 59.6889 145.154 60.446C143.197 61.1847 140.759 61.554 137.842 61.554C135.681 61.554 133.825 61.4155 132.274 61.1385C130.741 60.8615 129.19 60.3999 127.621 59.7536V52.7734C129.301 53.5305 131.102 54.1584 133.022 54.657C134.961 55.1371 136.66 55.3771 138.119 55.3771C139.762 55.3771 140.935 55.1371 141.636 54.657C142.357 54.1584 142.717 53.5121 142.717 52.718C142.717 52.201 142.569 51.7393 142.273 51.3331C141.996 50.9084 141.387 50.4375 140.445 49.9205C139.504 49.3849 138.026 48.6925 136.013 47.843C134.075 47.0305 132.477 46.2088 131.222 45.3778C129.984 44.5469 129.061 43.5682 128.452 42.4418C127.861 41.2969 127.565 39.8473 127.565 38.093C127.565 35.2308 128.673 33.0795 130.889 31.6392C133.124 30.1804 136.106 29.451 139.836 29.451C141.756 29.451 143.585 29.6449 145.32 30.0327C147.075 30.4205 148.875 31.0391 150.722 31.8885L148.173 37.9822C146.641 37.3175 145.191 36.7727 143.825 36.348C142.477 35.9233 141.101 35.7109 139.697 35.7109C138.46 35.7109 137.528 35.8771 136.9 36.2095C136.272 36.5419 135.958 37.0497 135.958 37.733C135.958 38.2315 136.115 38.6747 136.429 39.0625C136.761 39.4503 137.389 39.8842 138.312 40.3643C139.254 40.826 140.63 41.4261 142.44 42.1648C144.194 42.8849 145.717 43.642 147.01 44.4361C148.303 45.2116 149.3 46.1811 150.001 47.3445C150.703 48.4893 151.054 49.9759 151.054 51.804ZM170.415 29.451C173.278 29.451 175.743 30.005 177.811 31.1129C179.879 32.2024 181.477 33.7905 182.603 35.8771C183.729 37.9638 184.293 40.5121 184.293 43.522V47.6214H164.322C164.414 50.0036 165.125 51.8778 166.455 53.2443C167.803 54.5923 169.668 55.2663 172.05 55.2663C174.026 55.2663 175.835 55.0632 177.479 54.657C179.122 54.2507 180.812 53.6413 182.548 52.8288V59.3658C181.015 60.1229 179.408 60.6768 177.728 61.0277C176.066 61.3786 174.044 61.554 171.662 61.554C168.56 61.554 165.808 60.9815 163.408 59.8366C161.026 58.6918 159.151 56.9467 157.785 54.6016C156.437 52.2564 155.763 49.3018 155.763 45.7379C155.763 42.1186 156.372 39.1087 157.591 36.7081C158.828 34.2891 160.545 32.4794 162.743 31.2791C164.94 30.0604 167.498 29.451 170.415 29.451ZM170.471 35.4616C168.827 35.4616 167.461 35.9879 166.371 37.0405C165.3 38.093 164.682 39.7457 164.516 41.9986H176.371C176.352 40.7429 176.121 39.6257 175.678 38.647C175.254 37.6683 174.607 36.8928 173.739 36.3203C172.89 35.7479 171.8 35.4616 170.471 35.4616Z" fill="white"/>
<path d="M182 77H134V64H182V77Z" fill="#C4007A"/>
</svg>
